<svg width="101" height="48" viewBox="0 0 101 48" fill="none" xmlns="http://www.w3.org/2000/svg" class="mx-auto mb-5"><g clip-path="url(#clip0_463_4841)"><g mask="url(#mask0_463_4841)"><path fill="white"></path><path d="M29.5994 12.2863H5.00807C3.81245 12.2863 2.6658 12.7613 1.82038 13.6067C0.974962 14.4521 0.500006 15.5988 0.500006 16.7944V19.6007C0.498817 20.3323 0.675701 21.0532 1.01539 21.701C1.35508 22.3491 1.84736 22.9047 2.44973 23.3198C2.44291 23.4173 2.44291 23.5152 2.44973 23.6127V39.3911C2.44389 40.4905 2.66247 41.5796 3.09215 42.5917C3.49314 43.601 4.09077 44.5204 4.85029 45.2966C5.61241 46.0606 6.51573 46.6692 7.51004 47.0886C8.4963 47.5298 9.56272 47.7639 10.6431 47.776C11.911 47.7865 13.1643 47.5051 14.3059 46.9534C15.4339 46.392 16.4202 45.583 17.1911 44.5865C17.9401 45.5761 18.9084 46.3786 20.0199 46.9307C21.1613 47.497 22.4199 47.7867 23.6939 47.776C24.7966 47.7763 25.8883 47.5579 26.9059 47.1336C27.9119 46.7162 28.8297 46.112 29.6107 45.353C30.3935 44.6076 31.0215 43.7152 31.459 42.7269C31.9002 41.7217 32.1266 40.6353 32.1239 39.5374V23.6127C32.1303 23.5152 32.1303 23.4173 32.1239 23.3198C32.7285 22.9058 33.223 22.3509 33.5648 21.7028C33.9063 21.0549 34.0851 20.3332 34.0851 19.6007V16.7718C34.0791 15.584 33.6046 14.4466 32.7648 13.6066C31.9247 12.7667 30.7874 12.2922 29.5994 12.2863ZM3.88105 16.7718C3.88105 16.4729 3.99979 16.1863 4.21115 15.9749C4.42251 15.7636 4.70916 15.6448 5.00807 15.6448H29.5994C29.8985 15.6448 30.1851 15.7636 30.3964 15.9749C30.6079 16.1863 30.7266 16.4729 30.7266 16.7718V19.6007C30.7266 19.8995 30.6079 20.1863 30.3964 20.3976C30.1851 20.6089 29.8985 20.7277 29.5994 20.7277H5.00807C4.70916 20.7277 4.42251 20.6089 4.21115 20.3976C3.99979 20.1863 3.88105 19.8995 3.88105 19.6007V16.7718ZM15.1512 41.0139C14.922 41.6083 14.5729 42.1493 14.1256 42.603C13.6856 43.0765 13.1573 43.4593 12.5703 43.73C11.9912 43.9972 11.3598 44.1319 10.722 44.1244C10.1195 44.1277 9.5222 44.0129 8.96389 43.7863C8.41667 43.5549 7.91341 43.2307 7.47623 42.8284C6.59075 42.0317 6.04257 40.9273 5.94349 39.7403C5.93544 39.688 5.93544 39.635 5.94349 39.5827V39.4248L5.96603 24.1087H15.5457V39.1656C15.5325 39.8012 15.3986 40.4284 15.1512 41.0139ZM28.1682 41.1378C27.9186 41.7041 27.5671 42.2198 27.1314 42.6593C26.2236 43.5392 25.0142 44.039 23.7504 44.0568C23.1467 44.0593 22.5489 43.9405 21.9921 43.7076C21.44 43.4802 20.9354 43.1514 20.5046 42.7382C20.0826 42.3198 19.7356 41.8317 19.4789 41.2957C19.2098 40.7547 19.0562 40.1637 19.0281 39.5601C19.0157 39.5081 19.0157 39.4541 19.0281 39.4022V24.1087H28.6753V39.3798C28.6454 39.9988 28.4881 40.6049 28.2132 41.1604L28.1682 41.1378Z" fill="white"></path><path d="M53.3231 25.2354C52.3829 24.2028 51.2291 23.3875 49.9419 22.8461C48.5674 22.2435 47.0814 21.9362 45.5804 21.9444C44.1452 21.9295 42.722 22.2095 41.3992 22.7672C40.127 23.2739 38.9752 24.0417 38.0181 25.0212C37.0978 26.0011 36.3747 27.149 35.8881 28.4023C35.3837 29.7187 35.1275 31.1172 35.1331 32.5272V45.7469C35.1289 45.9833 35.1726 46.218 35.2616 46.4369C35.3507 46.6557 35.4835 46.8544 35.6515 47.0205C35.8181 47.1912 36.0183 47.3253 36.2394 47.4145C36.4607 47.5036 36.6978 47.5461 36.9363 47.5389C37.1655 47.5473 37.3936 47.5065 37.6057 47.4189C37.8176 47.3314 38.0082 47.1994 38.1647 47.0318C38.4781 46.6787 38.6436 46.2187 38.6268 45.7469V39.9542H52.613V45.7469C52.6017 45.981 52.6367 46.2149 52.716 46.4354C52.7953 46.6559 52.9174 46.8586 53.075 47.0318C53.2302 47.2011 53.4206 47.3345 53.6329 47.422C53.8452 47.5097 54.0741 47.5496 54.3036 47.5389C54.5381 47.5429 54.771 47.499 54.9881 47.4099C55.2051 47.3209 55.4017 47.1883 55.5658 47.0205C55.7375 46.8565 55.8733 46.6586 55.9645 46.4394C56.0557 46.2203 56.1003 45.9845 56.0955 45.7469V33.1245C56.1074 31.6446 55.8674 30.1735 55.3854 28.7741C54.9421 27.4682 54.2407 26.2647 53.3231 25.2354ZM52.613 36.3816H38.717V32.482C38.7038 31.4793 38.8877 30.4837 39.258 29.5519C39.5942 28.6982 40.1135 27.9289 40.7794 27.2977C41.4277 26.6862 42.195 26.2143 43.0335 25.9115C43.8963 25.5797 44.8135 25.4115 45.7383 25.4157C46.6771 25.4094 47.608 25.5894 48.477 25.9454C49.3258 26.2852 50.0936 26.7998 50.731 27.4555C51.3768 28.1289 51.8724 28.9318 52.1848 29.8111C52.5308 30.7839 52.7024 31.8101 52.6919 32.8427L52.613 36.3816Z" fill="white"></path><path d="M77.2835 21.156C77.0492 21.1472 76.8158 21.1878 76.5982 21.2751C76.3808 21.3625 76.1842 21.4947 76.0212 21.6632C75.8563 21.8393 75.7285 22.0468 75.6452 22.2734C75.562 22.4998 75.525 22.7408 75.5365 22.9818V27.2081C75.5425 28.1824 75.3978 29.1518 75.1084 30.082C74.8553 30.9416 74.4339 31.7422 73.8685 32.4374C73.3024 33.1403 72.5758 33.6968 71.7498 34.0604C70.8287 34.4569 69.8337 34.6529 68.8308 34.6351C67.8624 34.6493 66.9019 34.4571 66.0134 34.0717C65.1988 33.7138 64.472 33.1832 63.8833 32.5163C63.3065 31.86 62.8693 31.0931 62.5984 30.2623C62.2908 29.3542 62.1272 28.4035 62.1139 27.4449V22.9818C62.1329 22.5042 61.9628 22.0385 61.6406 21.6857C61.4814 21.5194 61.2883 21.3889 61.0745 21.3033C60.8605 21.2178 60.6308 21.1791 60.4007 21.1899C60.1687 21.1845 59.9381 21.2268 59.7229 21.314C59.5078 21.4014 59.3128 21.5316 59.1498 21.697C58.9804 21.8644 58.8469 22.0648 58.7578 22.2859C58.6685 22.5067 58.6256 22.7435 58.6314 22.9818V27.2081C58.6231 28.5498 58.8247 29.8845 59.2287 31.164C59.5936 32.3508 60.1703 33.4619 60.9304 34.4435C61.6685 35.3905 62.5785 36.1895 63.6128 36.7991C64.6505 37.4282 65.7976 37.8564 66.9938 38.0613V45.6347C66.9894 45.8728 67.0329 46.1092 67.122 46.3301C67.2111 46.5508 67.3438 46.7514 67.5122 46.9196C67.6796 47.0891 67.88 47.2224 68.1011 47.3115C68.322 47.4008 68.5588 47.4437 68.7971 47.438C69.0298 47.4405 69.2605 47.3958 69.4756 47.3067C69.6906 47.2177 69.8852 47.0859 70.048 46.9196C70.2164 46.7514 70.3492 46.5508 70.4383 46.3301C70.5273 46.1092 70.5708 45.8728 70.5664 45.6347V38.0613C71.7814 37.879 72.9513 37.4698 74.0151 36.8554C75.0465 36.2416 75.9526 35.4385 76.6862 34.4885C77.4409 33.514 78.0204 32.4157 78.3992 31.2427C78.7992 29.9772 79.008 28.6592 79.0191 27.332V22.9818C79.0222 22.7439 78.9781 22.5079 78.889 22.2872C78.7999 22.0667 78.668 21.8661 78.5007 21.697C78.3442 21.5301 78.1559 21.3962 77.9467 21.3033C77.7377 21.2104 77.5122 21.1604 77.2835 21.156Z" fill="white"></path><path d="M98.8322 34.6461H94.5834C94.1267 34.6311 93.6782 34.77 93.31 35.0405C93.1452 35.1769 93.0148 35.3497 92.9288 35.5455C92.8428 35.7411 92.8035 35.9541 92.814 36.1675C92.7947 36.3819 92.8299 36.5978 92.9167 36.7949C93.0035 36.992 93.1387 37.1639 93.31 37.2945C93.6834 37.5524 94.1299 37.6828 94.5834 37.6664H97.356V40.2248C96.9041 41.4581 96.0811 42.5212 95.0004 43.2677C93.8753 43.9518 92.5747 44.2926 91.2587 44.2482C90.2519 44.271 89.2535 44.0627 88.3397 43.6395C87.5148 43.2487 86.7929 42.6696 86.2322 41.9491C85.7236 41.2928 85.3414 40.5476 85.1052 39.7514C84.8437 38.9704 84.7104 38.152 84.7108 37.3282V32.2568C84.6864 31.4449 84.7929 30.6342 85.0263 29.8562C85.2606 29.0731 85.6433 28.3424 86.1533 27.7037C86.7276 27.0196 87.4477 26.4727 88.261 26.1033C89.1659 25.6913 90.1518 25.4873 91.146 25.506C92.4675 25.4558 93.7726 25.8097 94.8878 26.5202C96.0316 27.3219 96.9136 28.443 97.4236 29.7436C97.5383 29.9848 97.7282 30.1825 97.9644 30.307C98.2219 30.4413 98.5081 30.5108 98.7985 30.5099C99.2531 30.5129 99.6907 30.3376 100.017 30.0215C100.344 29.7054 100.534 29.2738 100.545 28.8194C100.544 28.4564 100.451 28.0999 100.275 27.7825C99.6033 26.069 98.4234 24.6022 96.8939 23.5788C95.2113 22.5106 93.2514 21.9618 91.2587 22.0009C89.8585 21.9873 88.4703 22.2597 87.179 22.801C85.9619 23.3305 84.8625 24.0968 83.9445 25.0551C82.1656 26.92 81.1728 29.398 81.1719 31.975V37.8129C81.1763 40.3576 82.1518 42.8045 83.8993 44.6539C84.8349 45.6505 85.9669 46.4424 87.224 46.9798C88.4809 47.5169 89.8355 47.788 91.2023 47.7758C93.1836 47.8486 95.1426 47.3392 96.8374 46.3106C98.3652 45.315 99.5466 43.8698 100.218 42.1744C100.369 41.8715 100.461 41.5426 100.489 41.2053V36.4717C100.501 36.0089 100.331 35.5599 100.016 35.2208C99.8728 35.0438 99.6928 34.9005 99.4882 34.801C99.2838 34.7018 99.0596 34.6487 98.8322 34.6461Z" fill="white"></path><path d="M14.9032 10.5852C12.5477 9.98784 8.86236 9.19893 8.14108 6.77585C8.07893 6.32964 8.12133 5.87508 8.26491 5.44805C8.40849 5.02102 8.64933 4.63318 8.96845 4.31518C9.28757 3.99715 9.67621 3.75763 10.1037 3.6155C10.5313 3.47339 10.986 3.43255 11.432 3.49623C13.1338 3.82307 14.9032 5.85171 16.6275 10.9233C13.7649 8.86083 12.018 4.83738 10.5191 5.47979C7.34091 6.83221 13.4381 9.98784 14.9032 10.619V10.5852Z" fill="#EE3A2C"></path><path d="M19.1414 10.7195C21.1362 9.49108 29.6226 4.44206 24.5285 2.62756C21.6435 1.82738 19.0738 8.67962 16.8311 11.6437C18.2849 5.46763 18.454 1.95135 22.8155 0.520042C24.9343 0.0128849 27.7743 2.0077 27.549 4.36317C27.2119 5.65376 26.409 6.77388 25.295 7.50754C23.3843 8.85484 21.2989 9.93545 19.0964 10.7195H19.1414Z" fill="#5DC95D"></path></g></g><defs><clipPath id="clip0_463_4841"><rect width="100" height="47.318" fill="white" transform="translate(0.5 0.441589)"></rect></clipPath></defs></svg>