<svg xmlns="http://www.w3.org/2000/svg" width="800" height="200" viewBox="0 0 800 200" role="img" aria-labelledby="t d">
<title id="t">Yusuf Akinleye on GitHub</title>
<desc id="d">11,013 contributions in the last year, active on 340 of 371 days. Current streak 28 days, longest 34 days. Commits by language: Go 69%, TypeScript 14%, Vue 7%, Python 3%, Other 7%.</desc>
<rect x="0.5" y="0.5" width="799" height="199" rx="8" fill="#0e0e0d" stroke="#292927"/>
<text x="32" y="44" font-family="-apple-system, BlinkMacSystemFont, 'Segoe UI', Helvetica, Arial, sans-serif" font-size="12" fill="#8a8984">Contributions, last 12 months</text>
<text x="32" y="86" font-family="-apple-system, BlinkMacSystemFont, 'Segoe UI', Helvetica, Arial, sans-serif" font-size="38" font-weight="600" fill="#ededeb" letter-spacing="-1">11,013</text>
<text x="32" y="108" font-family="-apple-system, BlinkMacSystemFont, 'Segoe UI', Helvetica, Arial, sans-serif" font-size="12" fill="#8a8984">Active on 340 of 371 days</text>
<rect x="32.0" y="146" width="3" height="4" rx="1.5" fill="#ff8a4c" opacity="0.42"/><rect x="36.6" y="146" width="3" height="4" rx="1.5" fill="#ff8a4c" opacity="0.43"/><rect x="41.2" y="147" width="3" height="3" rx="1.5" fill="#ff8a4c" opacity="0.40"/><rect x="45.8" y="146" width="3" height="4" rx="1.5" fill="#ff8a4c" opacity="0.42"/><rect x="50.4" y="148" width="3" height="2" rx="1.5" fill="#ff8a4c" opacity="0.39"/><rect x="55.0" y="148" width="3" height="2" rx="1.5" fill="#ff8a4c" opacity="0.39"/><rect x="59.6" y="146" width="3" height="4" rx="1.5" fill="#ff8a4c" opacity="0.43"/><rect x="64.2" y="148" width="3" height="2" rx="1.5" fill="#ff8a4c" opacity="0.40"/><rect x="68.8" y="144" width="3" height="6" rx="1.5" fill="#ff8a4c" opacity="0.47"/><rect x="73.4" y="147" width="3" height="3" rx="1.5" fill="#ff8a4c" opacity="0.40"/><rect x="78.0" y="145" width="3" height="5" rx="1.5" fill="#ff8a4c" opacity="0.44"/><rect x="82.6" y="147" width="3" height="3" rx="1.5" fill="#ff8a4c" opacity="0.41"/><rect x="87.2" y="148" width="3" height="2" rx="1.5" fill="#ff8a4c" opacity="0.40"/><rect x="91.8" y="145" width="3" height="5" rx="1.5" fill="#ff8a4c" opacity="0.45"/><rect x="96.4" y="143" width="3" height="7" rx="1.5" fill="#ff8a4c" opacity="0.47"/><rect x="101.0" y="140" width="3" height="10" rx="1.5" fill="#ff8a4c" opacity="0.55"/><rect x="105.6" y="141" width="3" height="9" rx="1.5" fill="#ff8a4c" opacity="0.52"/><rect x="110.2" y="142" width="3" height="8" rx="1.5" fill="#ff8a4c" opacity="0.50"/><rect x="114.8" y="141" width="3" height="9" rx="1.5" fill="#ff8a4c" opacity="0.52"/><rect x="119.4" y="141" width="3" height="9" rx="1.5" fill="#ff8a4c" opacity="0.52"/><rect x="124.0" y="143" width="3" height="7" rx="1.5" fill="#ff8a4c" opacity="0.48"/><rect x="128.6" y="145" width="3" height="5" rx="1.5" fill="#ff8a4c" opacity="0.44"/><rect x="133.2" y="148" width="3" height="2" rx="1.5" fill="#ff8a4c" opacity="0.38"/><rect x="137.8" y="148" width="3" height="2" rx="1.5" fill="#ff8a4c" opacity="0.39"/><rect x="142.4" y="147" width="3" height="3" rx="1.5" fill="#ff8a4c" opacity="0.41"/><rect x="147.0" y="148" width="3" height="2" rx="1.5" fill="#ff8a4c" opacity="0.35"/><rect x="151.6" y="145" width="3" height="5" rx="1.5" fill="#ff8a4c" opacity="0.44"/><rect x="156.2" y="139" width="3" height="11" rx="1.5" fill="#ff8a4c" opacity="0.56"/><rect x="160.8" y="136" width="3" height="14" rx="1.5" fill="#ff8a4c" opacity="0.62"/><rect x="165.4" y="139" width="3" height="11" rx="1.5" fill="#ff8a4c" opacity="0.56"/><rect x="170.0" y="139" width="3" height="11" rx="1.5" fill="#ff8a4c" opacity="0.56"/><rect x="174.6" y="142" width="3" height="8" rx="1.5" fill="#ff8a4c" opacity="0.51"/><rect x="179.2" y="144" width="3" height="6" rx="1.5" fill="#ff8a4c" opacity="0.46"/><rect x="183.8" y="135" width="3" height="15" rx="1.5" fill="#ff8a4c" opacity="0.64"/><rect x="188.4" y="134" width="3" height="16" rx="1.5" fill="#ff8a4c" opacity="0.65"/><rect x="193.0" y="140" width="3" height="10" rx="1.5" fill="#ff8a4c" opacity="0.54"/><rect x="197.6" y="141" width="3" height="9" rx="1.5" fill="#ff8a4c" opacity="0.52"/><rect x="202.2" y="131" width="3" height="19" rx="1.5" fill="#ff8a4c" opacity="0.72"/><rect x="206.8" y="140" width="3" height="10" rx="1.5" fill="#ff8a4c" opacity="0.55"/><rect x="211.4" y="145" width="3" height="5" rx="1.5" fill="#ff8a4c" opacity="0.45"/><rect x="216.0" y="145" width="3" height="5" rx="1.5" fill="#ff8a4c" opacity="0.44"/><rect x="220.6" y="137" width="3" height="13" rx="1.5" fill="#ff8a4c" opacity="0.61"/><rect x="225.2" y="146" width="3" height="4" rx="1.5" fill="#ff8a4c" opacity="0.43"/><rect x="229.8" y="146" width="3" height="4" rx="1.5" fill="#ff8a4c" opacity="0.43"/><rect x="234.4" y="145" width="3" height="5" rx="1.5" fill="#ff8a4c" opacity="0.44"/><rect x="239.0" y="144" width="3" height="6" rx="1.5" fill="#ff8a4c" opacity="0.46"/><rect x="243.6" y="145" width="3" height="5" rx="1.5" fill="#ff8a4c" opacity="0.45"/><rect x="248.2" y="128" width="3" height="22" rx="1.5" fill="#ff8a4c" opacity="0.78"/><rect x="252.8" y="141" width="3" height="9" rx="1.5" fill="#ff8a4c" opacity="0.53"/><rect x="257.4" y="140" width="3" height="10" rx="1.5" fill="#ff8a4c" opacity="0.54"/><rect x="262.0" y="139" width="3" height="11" rx="1.5" fill="#ff8a4c" opacity="0.56"/><rect x="266.6" y="116" width="3" height="34" rx="1.5" fill="#ff8a4c" opacity="1.00"/>
<line x1="300" y1="32" x2="300" y2="168" stroke="#292927"/>
<text x="328" y="44" font-family="-apple-system, BlinkMacSystemFont, 'Segoe UI', Helvetica, Arial, sans-serif" font-size="12" fill="#8a8984">Current streak</text>
<text x="328" y="78" font-family="-apple-system, BlinkMacSystemFont, 'Segoe UI', Helvetica, Arial, sans-serif" font-size="28" font-weight="600" fill="#ededeb">28 <tspan font-size="14" font-weight="400" fill="#8a8984">days</tspan></text>
<text x="328" y="120" font-family="-apple-system, BlinkMacSystemFont, 'Segoe UI', Helvetica, Arial, sans-serif" font-size="12" fill="#8a8984">Longest streak</text>
<text x="328" y="148" font-family="-apple-system, BlinkMacSystemFont, 'Segoe UI', Helvetica, Arial, sans-serif" font-size="20" font-weight="600" fill="#ededeb">34 <tspan font-size="13" font-weight="400" fill="#8a8984">days</tspan></text>
<text x="328" y="166" font-family="ui-monospace, SFMono-Regular, Menlo, Consolas, monospace" font-size="10.5" fill="#8a8984">4 Jan 2026 to 6 Feb 2026</text>
<line x1="532" y1="32" x2="532" y2="168" stroke="#292927"/>
<text x="560" y="44" font-family="-apple-system, BlinkMacSystemFont, 'Segoe UI', Helvetica, Arial, sans-serif" font-size="12" fill="#8a8984">Commits by language</text>
<text x="560" y="60" font-family="ui-monospace, SFMono-Regular, Menlo, Consolas, monospace" font-size="10.5" fill="#8a8984">10,380 commits, all repositories</text>
<rect x="560.0" y="74" width="141.4" height="8" fill="#ff8a4c"/><rect x="702.9" y="74" width="27.8" height="8" fill="#d0cfca"/><rect x="732.2" y="74" width="13.9" height="8" fill="#9a9994"/><rect x="747.6" y="74" width="4.7" height="8" fill="#6b6a66"/><rect x="753.9" y="74" width="12.6" height="8" fill="#3d3c39"/>
<rect x="560" y="97" width="7" height="7" rx="1.5" fill="#ff8a4c"/><text x="573" y="104" font-family="-apple-system, BlinkMacSystemFont, 'Segoe UI', Helvetica, Arial, sans-serif" font-size="11.5" fill="#ededeb">Go</text><text x="768" y="104" text-anchor="end" font-family="ui-monospace, SFMono-Regular, Menlo, Consolas, monospace" font-size="11" fill="#8a8984">69%</text><rect x="560" y="112" width="7" height="7" rx="1.5" fill="#d0cfca"/><text x="573" y="119" font-family="-apple-system, BlinkMacSystemFont, 'Segoe UI', Helvetica, Arial, sans-serif" font-size="11.5" fill="#ededeb">TypeScript</text><text x="768" y="119" text-anchor="end" font-family="ui-monospace, SFMono-Regular, Menlo, Consolas, monospace" font-size="11" fill="#8a8984">14%</text><rect x="560" y="127" width="7" height="7" rx="1.5" fill="#9a9994"/><text x="573" y="134" font-family="-apple-system, BlinkMacSystemFont, 'Segoe UI', Helvetica, Arial, sans-serif" font-size="11.5" fill="#ededeb">Vue</text><text x="768" y="134" text-anchor="end" font-family="ui-monospace, SFMono-Regular, Menlo, Consolas, monospace" font-size="11" fill="#8a8984">7%</text><rect x="560" y="142" width="7" height="7" rx="1.5" fill="#6b6a66"/><text x="573" y="149" font-family="-apple-system, BlinkMacSystemFont, 'Segoe UI', Helvetica, Arial, sans-serif" font-size="11.5" fill="#ededeb">Python</text><text x="768" y="149" text-anchor="end" font-family="ui-monospace, SFMono-Regular, Menlo, Consolas, monospace" font-size="11" fill="#8a8984">3%</text><rect x="560" y="157" width="7" height="7" rx="1.5" fill="#3d3c39"/><text x="573" y="164" font-family="-apple-system, BlinkMacSystemFont, 'Segoe UI', Helvetica, Arial, sans-serif" font-size="11.5" fill="#ededeb">Other</text><text x="768" y="164" text-anchor="end" font-family="ui-monospace, SFMono-Regular, Menlo, Consolas, monospace" font-size="11" fill="#8a8984">7%</text>
<text x="768" y="186" text-anchor="end" font-family="ui-monospace, SFMono-Regular, Menlo, Consolas, monospace" font-size="9.5" fill="#8a8984">updated 3 Oct 2026</text>
</svg>
