<svg width="193" height="53" viewBox="0 0 193 53" fill="none" xmlns="http://www.w3.org/2000/svg">
<path d="M53.8045 44.2357V19.4846H64.9071C67.7594 19.4846 69.9516 20.0621 71.4839 21.2172C73.0161 22.3486 73.7822 23.9044 73.7822 25.8845C73.7822 27.2281 73.4757 28.3596 72.8629 29.279C72.2735 30.1983 71.4721 30.9055 70.4585 31.4005C69.4448 31.8955 68.3487 32.143 67.1701 32.143L67.8065 31.0823C69.2209 31.0823 70.4702 31.3298 71.5546 31.8248C72.6389 32.3198 73.4993 33.0506 74.1358 34.017C74.7722 34.9599 75.0905 36.1386 75.0905 37.5529C75.0905 39.6744 74.289 41.3245 72.6861 42.5031C71.1067 43.6582 68.7494 44.2357 65.6143 44.2357H53.8045ZM57.3403 41.3717H65.4729C67.4294 41.3717 68.9262 41.0416 69.9634 40.3816C71.0006 39.7216 71.5192 38.6844 71.5192 37.27C71.5192 35.8321 71.0006 34.7831 69.9634 34.1231C68.9262 33.4631 67.4294 33.1331 65.4729 33.1331H57.0221V30.269H64.5889C66.3804 30.269 67.7712 29.939 68.7612 29.279C69.7513 28.6189 70.2463 27.6289 70.2463 26.3088C70.2463 24.9888 69.7513 23.9987 68.7612 23.3387C67.7712 22.6786 66.3804 22.3486 64.5889 22.3486H57.3403V41.3717ZM80.0702 44.2357V25.4956H83.4647V44.2357H80.0702ZM81.7675 21.889C81.1074 21.889 80.5535 21.6768 80.1056 21.2525C79.6813 20.8282 79.4691 20.3096 79.4691 19.6967C79.4691 19.0603 79.6813 18.5299 80.1056 18.1056C80.5535 17.6813 81.1074 17.4691 81.7675 17.4691C82.4275 17.4691 82.9697 17.6813 83.394 18.1056C83.8418 18.5063 84.0658 19.0131 84.0658 19.626C84.0658 20.2625 83.8536 20.8046 83.4293 21.2525C83.005 21.6768 82.4511 21.889 81.7675 21.889ZM92.3861 44.2357V22.5608H83.9V19.4846H104.373V22.5608H95.8867V44.2357H92.3861ZM107.28 44.2357V25.4956H110.533V30.5872L110.215 29.3143C110.733 28.0178 111.605 27.0278 112.831 26.3442C114.057 25.6606 115.566 25.3188 117.357 25.3188V28.6071C117.216 28.5836 117.074 28.5718 116.933 28.5718C116.815 28.5718 116.697 28.5718 116.579 28.5718C114.764 28.5718 113.326 29.1139 112.266 30.1983C111.205 31.2826 110.674 32.8502 110.674 34.901V44.2357H107.28ZM131.793 44.2357V40.2755L131.616 39.533V32.7795C131.616 31.3415 131.192 30.2336 130.343 29.4557C129.518 28.6543 128.269 28.2535 126.595 28.2535C125.487 28.2535 124.403 28.4421 123.342 28.8193C122.281 29.1729 121.385 29.6561 120.655 30.269L119.24 27.7232C120.207 26.9453 121.362 26.356 122.705 25.9552C124.073 25.5309 125.499 25.3188 126.984 25.3188C129.553 25.3188 131.533 25.9434 132.924 27.1928C134.315 28.4421 135.01 30.3515 135.01 32.9209V44.2357H131.793ZM125.64 44.4479C124.249 44.4479 123.024 44.2121 121.963 43.7407C120.926 43.2692 120.124 42.621 119.559 41.796C118.993 40.9474 118.71 39.9927 118.71 38.9319C118.71 37.9183 118.946 36.999 119.417 36.1739C119.912 35.3489 120.702 34.6888 121.786 34.1938C122.894 33.6988 124.379 33.4513 126.241 33.4513H132.182V35.891H126.383C124.686 35.891 123.542 36.1739 122.953 36.7397C122.364 37.3054 122.069 37.989 122.069 38.7905C122.069 39.7098 122.434 40.4523 123.165 41.0181C123.896 41.5602 124.91 41.8313 126.206 41.8313C127.479 41.8313 128.587 41.5485 129.53 40.9827C130.496 40.417 131.192 39.5919 131.616 38.5076L132.288 40.8413C131.84 41.9492 131.05 42.8332 129.919 43.4932C128.787 44.1296 127.361 44.4479 125.64 44.4479ZM149.036 44.4479C147.221 44.4479 145.594 44.0471 144.156 43.2457C142.742 42.4442 141.622 41.3245 140.797 39.8866C139.972 38.4487 139.559 36.775 139.559 34.8656C139.559 32.9563 139.972 31.2944 140.797 29.8801C141.622 28.4421 142.742 27.3224 144.156 26.521C145.594 25.7195 147.221 25.3188 149.036 25.3188C150.662 25.3188 152.112 25.6724 153.385 26.3795C154.658 27.0867 155.659 28.1475 156.39 29.5618C157.145 30.9762 157.522 32.7441 157.522 34.8656C157.522 36.9872 157.133 38.7551 156.355 40.1695C155.601 41.5838 154.587 42.6564 153.314 43.3871C152.041 44.0943 150.615 44.4479 149.036 44.4479ZM149.318 41.4777C150.497 41.4777 151.558 41.2066 152.501 40.6645C153.467 40.1223 154.222 39.3562 154.764 38.3662C155.329 37.3525 155.612 36.1857 155.612 34.8656C155.612 33.522 155.329 32.367 154.764 31.4005C154.222 30.4104 153.467 29.6443 152.501 29.1022C151.558 28.56 150.497 28.2889 149.318 28.2889C148.116 28.2889 147.044 28.56 146.101 29.1022C145.158 29.6443 144.404 30.4104 143.838 31.4005C143.272 32.367 142.989 33.522 142.989 34.8656C142.989 36.1857 143.272 37.3525 143.838 38.3662C144.404 39.3562 145.158 40.1223 146.101 40.6645C147.044 41.2066 148.116 41.4777 149.318 41.4777ZM155.577 51.0953V39.2501L155.931 34.901L155.718 30.5519V25.4956H158.971V51.0953H155.577Z" fill="#FBFBFB"/>
<path d="M20.0366 9.41671C22.2629 5.56065 27.8287 5.56065 30.055 9.4167L45.0824 35.4451C47.3087 39.3011 44.5259 44.1212 40.0733 44.1212H10.0183C5.56574 44.1212 2.78287 39.3011 5.00916 35.4451L20.0366 9.41671Z" fill="url(#paint0_linear_119_839)"/>
<rect x="27.4033" y="24.6739" width="1.47328" height="7.36641" fill="#0A2A1F"/>
<rect x="24.4565" y="23.2006" width="1.47328" height="10.313" fill="#0A2A1F"/>
<rect x="21.5103" y="24.6739" width="1.47328" height="7.36641" fill="#0A2A1F"/>
<defs>
<linearGradient id="paint0_linear_119_839" x1="6.65169" y1="44.1212" x2="25.45" y2="7.97068" gradientUnits="userSpaceOnUse">
<stop stop-color="#34D399"/>
<stop offset="1" stop-color="#0A2A1F"/>
</linearGradient>
</defs>
</svg>
